<?xml version="1.0" standalone="no"?>
<!DOCTYPE svg PUBLIC "-//W3C//DTD SVG 20010904//EN"
 "http://www.w3.org/TR/2001/REC-SVG-20010904/DTD/svg10.dtd">
<svg version="1.0" xmlns="http://www.w3.org/2000/svg"
 width="672.000000pt" height="672.000000pt" viewBox="0 0 672.000000 672.000000"
 preserveAspectRatio="xMidYMid meet">
<metadata>
Created by potrace 1.14, written by Peter Selinger 2001-2017
</metadata>
<g transform="translate(0.000000,672.000000) scale(0.100000,-0.100000)"
fill="#000000" stroke="none">
<path d="M3276 5863 c-2 -3 -22 -6 -43 -8 -142 -11 -359 -95 -435 -167 -10
-10 -22 -18 -26 -18 -35 0 -262 -279 -254 -312 1 -5 -2 -8 -7 -8 -5 0 -15 -16
-22 -35 -7 -19 -17 -35 -21 -35 -4 0 -8 -4 -8 -9 0 -5 -30 -60 -66 -122 -36
-63 -79 -139 -96 -169 -17 -30 -34 -59 -38 -65 -4 -5 -21 -35 -38 -65 -16 -30
-69 -122 -116 -204 -47 -82 -86 -150 -86 -151 0 -2 -36 -64 -80 -139 -44 -76
-80 -139 -80 -141 0 -2 -20 -37 -43 -77 -72 -120 -101 -173 -98 -177 1 -2 -1
-7 -6 -10 -5 -3 -51 -80 -103 -171 -51 -91 -105 -185 -120 -210 -15 -25 -39
-65 -52 -90 -28 -50 -43 -77 -117 -203 -28 -49 -51 -90 -51 -92 0 -2 -62 -109
-90 -155 -5 -8 -30 -53 -56 -100 -26 -47 -51 -86 -56 -88 -4 -2 -8 -12 -8 -23
0 -10 -4 -19 -9 -19 -5 0 -14 -12 -20 -27 -7 -16 -17 -37 -24 -48 -7 -11 -37
-63 -67 -115 -30 -52 -60 -104 -67 -115 -7 -11 -15 -27 -19 -35 -4 -8 -29 -52
-56 -97 -26 -45 -48 -86 -48 -92 0 -6 -4 -11 -8 -11 -4 0 -15 -15 -23 -33 -9
-17 -49 -90 -91 -162 -134 -232 -151 -286 -152 -465 0 -165 27 -261 112 -395
110 -174 293 -299 487 -333 66 -12 4506 0 4555 12 14 3 37 8 53 11 28 5 91 28
137 48 56 25 163 100 206 145 100 104 170 240 196 382 14 73 16 190 5 240 -3
14 -8 36 -11 50 -13 60 -45 133 -105 240 -36 63 -68 117 -73 118 -4 2 -8 8 -8
13 0 6 -64 119 -141 252 -140 238 -171 293 -193 332 -6 11 -38 65 -70 120 -32
55 -83 143 -114 195 -30 52 -62 106 -71 120 -8 14 -16 27 -16 30 0 3 -14 28
-31 55 -66 108 -104 173 -104 181 0 4 -6 15 -14 23 -7 9 -25 36 -38 61 -14 25
-49 86 -78 135 -29 50 -64 110 -78 135 -14 25 -51 89 -84 142 -32 54 -58 102
-58 108 0 5 -4 10 -10 10 -5 0 -10 4 -10 9 0 6 -51 97 -113 204 -63 106 -117
200 -120 208 -4 8 -17 30 -30 50 -12 20 -65 110 -117 200 -52 90 -99 171 -105
180 -5 9 -23 40 -40 69 -16 29 -34 60 -40 69 -5 9 -25 43 -44 76 -19 33 -66
114 -105 180 -39 66 -77 132 -84 146 -8 14 -25 39 -38 54 -13 15 -24 31 -24
35 0 17 -149 154 -215 198 -75 50 -196 106 -260 119 -40 9 -50 12 -50 14 0 3
-41 8 -130 14 -49 3 -98 8 -107 9 -9 2 -19 2 -22 -1z"/>
</g>
</svg>
