<?xml version="1.0" encoding="UTF-8" standalone="no"?>
<svg
   id="Layer_1"
   version="1.1"
   viewBox="0 0 227.10126 242.61697"
   sodipodi:docname="test.svg"
   width="227.10126"
   height="242.61697"
   xmlns:inkscape="http://www.inkscape.org/namespaces/inkscape"
   xmlns:sodipodi="http://sodipodi.sourceforge.net/DTD/sodipodi-0.dtd"
   xmlns="http://www.w3.org/2000/svg"
   xmlns:svg="http://www.w3.org/2000/svg">
  <sodipodi:namedview
     id="namedview3"
     pagecolor="#ffffff"
     bordercolor="#666666"
     borderopacity="1.0"
     inkscape:showpageshadow="2"
     inkscape:pageopacity="0.0"
     inkscape:pagecheckerboard="0"
     inkscape:deskcolor="#d1d1d1" />
  <!-- Generator: Adobe Illustrator 30.2.1, SVG Export Plug-In . SVG Version: 2.1.1 Build 1)  -->
  <defs
     id="defs1">
    <style
       id="style1">
      .st0 {
        fill: #2aabbf;
      }
      .st1 {
        fill: #5a5a5c;
      }
      .st2 {
        fill: #f07c22;
      }
    </style>
  </defs>
  <path
     class="st1"
     d="m 92.601254,241.60184 -76.3,-45 c -4.7,-2.8 -4.7,-9.7 0.1,-12.4 l 75.8,-42.8 v 0 c 4.2,7.4 1.6,16.8 -5.9,21 l -49.8,28.1 55.8,32.9 33.999996,-79.2 c 1.7,-4 6.5,-5.5 10.2,-3.3 l 76.3,45 c 4.7,2.8 4.7,9.7 -0.1,12.4 l -75.8,42.8 v 0 c -4.2,-7.4 -1.6,-16.8 5.9,-21 l 49.8,-28.1 -55.8,-32.9 -34,79.2 c -1.7,4 -6.499996,5.5 -10.199996,3.3 z"
     id="path1" />
  <g
     id="g3"
     transform="translate(-58.298746,-163.09816)">
    <path
       class="st2"
       d="M 146,297.7 68.9,341.3 C 64.1,344 58.2,340.5 58.3,335 l 0.8,-87 v 0 c 8.5,0 15.4,7.1 15.3,15.6 l -0.5,57.2 56.4,-31.9 -51.6,-69 c -2.6,-3.4 -1.5,-8.4 2.2,-10.5 L 158,165.8 c 4.8,-2.7 10.7,0.8 10.6,6.3 l -0.8,87 v 0 c -8.5,0 -15.4,-7.1 -15.3,-15.6 l 0.5,-57.2 -56.4,31.9 51.6,69 c 2.6,3.4 1.5,8.4 -2.2,10.5 z"
       id="path2" />
    <path
       class="st0"
       d="m 285.4,246.5 -0.9,88.6 c 0,5.5 -6,8.9 -10.8,6.1 L 198.8,297 v 0 c 4.3,-7.3 13.8,-9.8 21.1,-5.4 l 49.2,29.1 0.6,-64.8 -85.6,10.1 c -4.3,0.5 -8,-2.9 -8,-7.2 l 0.9,-88.6 c 0,-5.5 6,-8.9 10.8,-6.1 l 74.9,44.2 v 0 c -4.3,7.3 -13.8,9.8 -21.1,5.4 l -49.2,-29.1 -0.6,64.8 85.6,-10.1 c 4.3,-0.5 8,2.9 8,7.2 z"
       id="path3" />
  </g>
</svg>
